<svg width="481" height="481" viewBox="0 0 481 481" fill="none" xmlns="http://www.w3.org/2000/svg">
<path d="M81.54 56.1358C91.5317 65.9525 102.769 76.8608 114.136 87.89C125.311 98.7442 136.748 109.853 147.223 120.132C173.248 99.7567 205.973 87.565 241.515 87.565C277.032 87.565 309.74 99.74 335.757 120.094C347.94 108.211 363.544 92.79 375.174 81.2692C383.353 73.165 390.99 65.5942 397.078 59.615C397.078 59.615 400.586 55.5191 404.528 50.9566C407.953 46.9983 409.028 42.915 407.474 39.7525C405.878 36.49 401.869 34.79 396.357 35.0858C388.782 35.4941 380.936 37.2525 373.674 40.165C357.044 46.8358 341.407 45.0275 325.874 34.6358C323.632 33.14 321.407 31.6108 319.182 30.0775C313.04 25.8566 306.686 21.49 300.04 17.8441C261.473 -3.33507 228.728 -5.60173 197.011 10.7274C183.594 17.6316 171.582 23.99 160.403 31.9483C141.773 45.215 124.203 47.4066 105.098 38.8691C100.369 36.7525 91.3025 33.4608 83.665 35.1983C78.5984 36.3525 75.9692 37.8691 74.865 40.2733C73.8609 42.4566 74.29 45.1733 76.2109 48.815C77.7109 51.6525 79.5525 54.1816 81.54 56.1358Z" fill="#0058A8"/>
<path d="M402.199 424.442C392.24 414.659 381.04 403.788 369.715 392.796C360.494 383.842 347.849 371.388 336.961 360.642C310.753 381.563 277.582 394.113 241.515 394.113C205.898 394.113 173.111 381.867 147.057 361.413C135.765 372.367 121.54 386.459 108.669 399.209C100.453 407.354 92.7776 414.963 86.6609 420.967C86.6609 420.967 83.1526 425.059 79.2109 429.621C75.79 433.584 74.715 437.671 76.265 440.829C77.8692 444.092 81.915 445.813 87.3817 445.492C94.9526 445.084 102.798 443.325 110.065 440.413C126.698 433.75 142.34 435.554 157.869 445.942C160.107 447.442 162.332 448.967 164.557 450.496C170.698 454.717 177.057 459.088 183.703 462.734C205.398 474.65 225.248 480.579 244.111 480.579C258.782 480.579 272.853 476.992 286.732 469.854C300.157 462.942 312.178 456.575 323.336 448.629C341.961 435.367 359.536 433.171 378.64 441.713C384.053 444.129 390.949 445.342 399.728 445.417C405.153 445.471 407.486 443.484 408.507 441.817C409.565 440.075 410.253 436.921 407.532 431.767C406.028 428.925 404.182 426.392 402.199 424.442Z" fill="#0058A8"/>
<path d="M469.857 196.155C462.957 182.743 456.599 170.734 448.632 159.551C435.37 140.922 433.174 123.347 441.715 104.243C443.832 99.5175 447.124 90.4425 445.386 82.8092C444.232 77.7425 442.711 75.1092 440.311 74.0092C438.128 73.0008 435.407 73.4342 431.77 75.355C428.936 76.855 426.399 78.6967 424.449 80.6842C414.649 90.655 403.769 101.868 392.757 113.209C382.207 124.08 371.403 135.201 361.357 145.443C382.257 171.643 394.79 204.797 394.79 240.838C394.79 255.851 392.503 270.313 388.453 284.03C402.253 295.293 411.928 308.497 417.74 324.051C417.932 324.564 418.086 325.084 418.207 325.618C421.169 338.784 416.478 346.997 412.024 351.572C405.594 358.168 396.128 360.784 386.561 361.434C390.819 365.743 395.082 370.047 399.211 374.218C407.357 382.43 414.965 390.109 420.969 396.222C420.969 396.222 425.065 399.73 429.624 403.672C432.399 406.072 435.232 407.314 437.761 407.314C438.849 407.314 439.882 407.084 440.832 406.622C444.095 405.018 445.795 400.968 445.499 395.505C445.09 387.926 443.332 380.08 440.415 372.822C433.753 356.184 435.557 340.547 445.945 325.018C447.445 322.776 448.974 320.551 450.503 318.326C454.724 312.18 459.09 305.83 462.74 299.184C483.92 260.613 486.182 227.876 469.857 196.155Z" fill="#0058A8"/>
<path d="M90.1858 281.085C86.3192 277.239 85.54 271.26 88.2983 266.543C88.7942 265.693 89.4733 265.022 90.14 264.339C88.9483 256.668 88.24 248.839 88.24 240.839C88.24 205.635 100.198 173.193 120.228 147.289C109.111 135.81 94.465 121.026 81.2692 107.71C73.165 99.5304 65.5942 91.8929 59.615 85.8054C59.615 85.8054 55.5233 82.2929 50.9566 78.3554C46.9983 74.9346 42.9275 73.8554 39.7525 75.4054C36.49 77.0096 34.79 81.0596 35.0858 86.5262C35.4983 94.0971 37.2525 101.943 40.165 109.21C46.8358 125.843 45.0275 141.476 34.64 157.01C33.1441 159.251 31.615 161.476 30.0816 163.701C25.8608 169.843 21.4941 176.197 17.8441 182.843C-3.33507 221.41 -5.60173 254.151 10.7274 285.872C17.6358 299.293 24.0025 311.314 31.9483 322.481C45.215 341.101 47.415 358.676 38.8691 377.785C36.4483 383.193 35.24 390.093 35.165 398.868C35.115 404.281 37.0941 406.631 38.765 407.647C39.6025 408.156 40.7691 408.581 42.3233 408.581C44.0025 408.581 46.14 408.085 48.815 406.672C51.6441 405.177 54.1775 403.335 56.14 401.343C65.9608 391.347 76.8692 380.106 87.9067 368.735C97.34 359.018 110.257 346.331 121.132 335.539C109.486 320.772 100.611 303.772 94.99 285.364C93.2983 284.018 91.7025 282.593 90.1858 281.085Z" fill="#0058A8"/>
<path d="M165.282 126.555C168.857 129.659 175.94 133.871 182.565 137.675C184.807 135.596 187.724 134.413 191.049 134.488C213.453 135.13 270.165 141.617 312.861 187.859C314.024 189.117 318.145 193.871 319.207 195.171C334.82 214.296 346.424 237.571 353.686 264.351C353.707 264.413 353.72 264.471 353.732 264.53C360.103 266.851 366.049 269.471 371.561 272.38C371.757 272.484 371.945 272.592 372.128 272.701C374.707 274.217 377.149 275.796 379.524 277.401C382.628 265.726 384.311 253.48 384.311 240.838C384.311 206.446 372.086 174.855 351.757 150.18C351.695 150.105 351.632 150.03 351.57 149.955C325.357 118.267 285.753 98.0421 241.515 98.0421C211.29 98.0421 183.278 107.546 160.174 123.63C161.978 124.305 163.728 125.205 165.282 126.555Z" fill="#0058A8"/>
<path d="M101.894 261.072C104.998 261.951 109.232 262.834 114.24 263.634C114.728 258.343 116.319 252.48 117.836 246.922C118.298 245.213 119.74 236.434 120.311 228.622C120.428 226.997 120.778 221.047 120.844 219.438C121.111 212.901 120.653 207.043 120.653 207.043C119.736 198.788 117.665 179.622 124.015 159.884C108.098 182.913 98.7192 210.788 98.7192 240.838C98.7192 247.663 99.3651 254.326 100.294 260.897C100.832 260.972 101.365 260.922 101.894 261.072Z" fill="#0058A8"/>
<path d="M334.344 348.279C331.603 346.599 328.836 344.816 325.969 342.966C315.486 336.204 302.44 327.787 282.619 319.441C255.636 308.087 223.703 307.624 195.528 307.22C179.544 306.991 164.444 306.774 151.086 304.695C132.74 301.841 119.394 298.379 108.969 293.67C130.028 346.308 181.448 383.637 241.511 383.637C274.661 383.637 305.182 372.249 329.444 353.224C329.349 353.129 329.236 353.02 329.14 352.92C330.969 351.479 332.59 349.804 334.344 348.279Z" fill="#0058A8"/>
<path d="M132.811 219.928C140.474 213.695 148.707 208.32 157.624 203.958C164.794 200.449 172.232 197.666 179.969 195.683C186.024 194.128 192.157 193.07 198.382 192.508C204.619 191.945 210.853 191.903 217.086 192.37C222.765 192.795 228.382 193.658 233.936 194.933C252.04 199.091 268.19 207.249 282.724 218.716C283.244 219.128 283.528 219.128 284.019 218.678C291.528 211.828 298.169 204.233 304.061 195.983C268.249 157.199 220.215 147.303 190.703 146.458C197.015 150.378 199.094 151.808 202.582 155.799C206.519 160.299 209.236 163.374 206.986 177.441C206.344 181.433 205.386 186.47 205.099 181.391C204.086 163.633 195.882 159.358 189.094 155.258C180.365 149.983 164.603 141.828 157.428 135.595C154.669 133.199 152.09 135.116 151.657 137.516C126.053 161.491 131.84 198.412 132.749 207.524C133.04 210.462 133.011 214.991 132.811 219.928Z" fill="#ED1C24"/>
<path d="M306.215 256.907C305.011 255.228 303.882 253.619 302.719 252.04C297.161 244.478 290.936 237.515 283.994 231.19C283.528 230.761 283.244 230.761 282.753 231.153C272.857 238.998 262.082 245.323 250.307 249.919C243.882 252.428 237.29 254.348 230.519 255.686C222.144 257.336 213.694 258.036 205.169 257.794C200.319 257.657 195.494 257.19 190.698 256.432C182.59 255.148 174.719 253.011 167.065 250.053C159.503 247.132 152.327 243.448 145.482 239.119C140.857 236.194 136.486 232.932 132.257 229.486C131.723 236.798 131.015 243.361 130.594 245.407C129.711 249.723 123.673 268.219 126.902 269.178C153.069 278.865 183.665 272.994 191.048 274.644C160.665 282.24 115.248 277.303 98.6316 272.594C108.486 282.39 122.898 288.19 152.927 292.861C189.073 298.482 242.686 289.64 287.269 308.407C329.223 326.065 341.382 343.486 363.019 347.699C380.861 351.219 411.949 352.369 406.519 328.244C398.974 308.044 384.365 293.824 366.028 283.003C366.007 282.99 365.99 282.982 365.969 282.969C343.357 271.028 315.128 265.803 288.811 263.915C305.665 262.336 323.182 262.773 342.132 267.49C334.798 240.461 323.44 219.29 309.932 202.748C304.053 210.757 297.503 218.148 290.119 224.911C290.348 225.153 290.532 225.361 290.732 225.548C299.144 233.311 306.503 241.978 312.986 251.398C313.336 251.907 316.278 256.736 315.723 257.094L306.215 256.907Z" fill="#ED1C24"/>
<path d="M199.99 201.121C177.773 202.863 158.178 211.317 140.523 224.909C140.869 225.201 141.061 225.384 141.273 225.534C142.994 226.792 144.698 228.084 146.453 229.296C162.29 240.188 179.69 246.888 198.882 248.701C206.728 249.442 214.569 249.276 222.378 248.221C228.211 247.438 233.94 246.171 239.565 244.434C252.915 240.309 265.015 233.817 276.065 225.321C276.211 225.205 276.407 225.151 276.578 225.071C253.832 207.63 228.59 198.875 199.99 201.121Z" fill="#ED1C24"/>
</svg>
