
<svg width="100%" height="100%" viewBox="0 0 1650 750" version="1.1" xmlns="http://www.w3.org/2000/svg" xmlns:xlink="http://www.w3.org/1999/xlink" xml:space="preserve"  style="fill-rule:evenodd;clip-rule:evenodd;stroke-linejoin:round;stroke-miterlimit:2;">
    <g id="Layer-1" transform="matrix(4.16667,0,0,4.16667,0,0)">
        <g transform="matrix(1,0,0,1,0,149.646)">
            <rect x="7.575" y="4.026" width="378.959" height="22.302" style="fill:rgb(237,28,36);"/>
        </g>
        <g transform="matrix(1,0,0,1,76.7808,87.7582)">
            <path d="M0,-56.508L-41.111,-56.816L-41.111,-35.876L-4.619,-36.337C-3.233,-36.337 -2.618,-35.722 -2.618,-34.49C-2.31,-28.023 -2.156,-21.094 -2.618,-13.703C-2.772,-12.318 -3.387,-12.01 -4.773,-12.01L-41.111,-12.318L-41.111,21.711C-41.111,23.404 -41.265,23.866 -42.497,23.866L-67.595,23.866C-68.519,23.866 -68.827,24.02 -68.827,21.711L-68.827,-78.526C-68.827,-80.374 -68.673,-80.528 -67.595,-80.528L0,-80.528C1.231,-80.528 1.078,-80.22 1.231,-78.988C1.693,-72.367 1.848,-64.053 1.231,-58.048C1.078,-56.662 1.231,-56.508 0,-56.508" style="fill:rgb(237,28,36);fill-rule:nonzero;"/>
        </g>
        <g transform="matrix(1,0,0,1,161.003,87.7582)">
            <path d="M0,-56.508L-41.111,-56.816L-41.111,-35.876L-4.619,-36.337C-3.233,-36.337 -2.618,-35.722 -2.618,-34.49C-2.31,-28.023 -2.156,-21.094 -2.618,-13.703C-2.772,-12.318 -3.387,-12.01 -4.773,-12.01L-41.111,-12.318L-41.111,21.711C-41.111,23.404 -41.265,23.866 -42.497,23.866L-67.595,23.866C-68.518,23.866 -68.827,24.02 -68.827,21.711L-68.827,-78.526C-68.827,-80.374 -68.673,-80.528 -67.595,-80.528L0,-80.528C1.231,-80.528 1.078,-80.22 1.231,-78.988C1.693,-72.367 1.848,-64.053 1.231,-58.048C1.078,-56.662 1.231,-56.508 0,-56.508" style="fill:rgb(237,28,36);fill-rule:nonzero;"/>
        </g>
        <g transform="matrix(1,0,0,1,225.671,5.0748)">
            <path d="M0,109.167C-32.796,109.167 -54.661,84.377 -54.661,54.815C-54.661,23.25 -30.948,0 -0.77,0C24.636,0 40.187,13.704 47.116,29.409C47.886,31.257 47.27,31.872 46.654,32.18L23.712,41.111C22.788,41.419 22.634,41.111 22.326,40.341C17.861,31.103 10.47,26.329 -0.154,26.329C-15.551,26.329 -25.405,38.493 -25.405,54.968C-25.405,74.215 -12.626,82.992 0.308,82.992C10.779,82.992 18.169,77.91 21.864,70.058C22.326,69.288 22.48,68.672 23.712,68.98L46.808,75.293C48.348,75.601 48.502,76.371 48.194,77.294C41.265,94.078 24.02,109.167 0,109.167" style="fill:rgb(237,28,36);fill-rule:nonzero;"/>
        </g>
        <g transform="matrix(1,0,0,1,293.55,15.5886)">
            <path d="M0,-0.542C2.398,1.814 5.095,4.432 7.823,7.079C10.505,9.684 13.25,12.35 15.764,14.817C22.01,9.927 29.864,7.001 38.394,7.001C46.918,7.001 54.768,9.923 61.012,14.808C63.936,11.956 67.681,8.255 70.472,5.49C72.435,3.545 74.268,1.728 75.729,0.293C75.729,0.293 76.571,-0.69 77.517,-1.785C78.339,-2.735 78.597,-3.715 78.224,-4.474C77.841,-5.257 76.879,-5.665 75.556,-5.594C73.738,-5.496 71.855,-5.074 70.112,-4.375C66.121,-2.774 62.368,-3.208 58.64,-5.702C58.102,-6.061 57.568,-6.428 57.034,-6.796C55.56,-7.809 54.035,-8.857 52.44,-9.732C43.184,-14.815 35.325,-15.359 27.713,-11.44C24.493,-9.783 21.61,-8.257 18.927,-6.347C14.456,-3.163 10.239,-2.637 5.654,-4.686C4.519,-5.194 2.343,-5.984 0.51,-5.567C-0.706,-5.29 -1.337,-4.926 -1.602,-4.349C-1.843,-3.825 -1.74,-3.173 -1.279,-2.299C-0.919,-1.618 -0.477,-1.011 0,-0.542" style="fill:rgb(0,88,168);fill-rule:nonzero;"/>
        </g>
        <g transform="matrix(1,0,0,1,370.508,101.601)">
            <path d="M0,1.839C-2.39,-0.509 -5.078,-3.118 -7.796,-5.756C-10.009,-7.905 -13.044,-10.894 -15.657,-13.473C-21.947,-8.452 -29.908,-5.44 -38.564,-5.44C-47.112,-5.44 -54.981,-8.379 -61.234,-13.288C-63.944,-10.659 -67.358,-7.277 -70.447,-4.217C-72.419,-2.262 -74.261,-0.436 -75.729,1.005C-75.729,1.005 -76.571,1.987 -77.517,3.082C-78.338,4.033 -78.596,5.014 -78.224,5.772C-77.839,6.555 -76.868,6.968 -75.556,6.891C-73.739,6.793 -71.856,6.371 -70.112,5.672C-66.12,4.073 -62.366,4.506 -58.639,6.999C-58.102,7.359 -57.568,7.725 -57.034,8.092C-55.56,9.105 -54.034,10.154 -52.439,11.029C-47.232,13.889 -42.468,15.312 -37.941,15.312C-34.42,15.312 -31.043,14.451 -27.712,12.738C-24.49,11.079 -21.605,9.551 -18.927,7.644C-14.457,4.461 -10.239,3.934 -5.654,5.984C-4.355,6.564 -2.7,6.855 -0.593,6.873C0.709,6.886 1.269,6.409 1.514,6.009C1.768,5.591 1.933,4.834 1.28,3.597C0.919,2.915 0.476,2.307 0,1.839" style="fill:rgb(0,88,168);fill-rule:nonzero;"/>
        </g>
        <g transform="matrix(1,0,0,1,386.746,69.7722)">
            <path d="M0,-21.121C-1.656,-24.34 -3.182,-27.222 -5.094,-29.906C-8.277,-34.377 -8.804,-38.595 -6.754,-43.18C-6.246,-44.314 -5.456,-46.492 -5.873,-48.324C-6.15,-49.54 -6.515,-50.172 -7.091,-50.436C-7.615,-50.678 -8.268,-50.574 -9.141,-50.113C-9.821,-49.753 -10.43,-49.311 -10.898,-48.834C-13.25,-46.441 -15.861,-43.75 -18.504,-41.028C-21.036,-38.419 -23.629,-35.75 -26.04,-33.292C-21.024,-27.004 -18.016,-19.047 -18.016,-10.397C-18.016,-6.794 -18.565,-3.323 -19.537,-0.031C-16.225,2.672 -13.903,5.841 -12.508,9.574C-12.462,9.697 -12.425,9.822 -12.396,9.95C-11.685,13.11 -12.811,15.081 -13.88,16.179C-15.423,17.762 -17.695,18.39 -19.991,18.546C-18.969,19.58 -17.946,20.613 -16.955,21.614C-15,23.585 -13.174,25.428 -11.733,26.895C-11.733,26.895 -10.75,27.737 -9.656,28.683C-8.99,29.259 -8.31,29.557 -7.703,29.557C-7.442,29.557 -7.194,29.502 -6.966,29.391C-6.183,29.006 -5.775,28.034 -5.846,26.723C-5.944,24.904 -6.366,23.021 -7.066,21.279C-8.665,17.286 -8.232,13.533 -5.739,9.806C-5.379,9.268 -5.012,8.734 -4.645,8.2C-3.632,6.725 -2.584,5.201 -1.708,3.606C3.375,-5.651 3.918,-13.508 0,-21.121" style="fill:rgb(0,88,168);fill-rule:nonzero;"/>
        </g>
        <g transform="matrix(1,0,0,1,295.625,49.8983)">
            <path d="M0,19.136C-0.928,18.213 -1.115,16.778 -0.453,15.646C-0.334,15.442 -0.171,15.281 -0.011,15.117C-0.297,13.276 -0.467,11.397 -0.467,9.477C-0.467,1.028 2.403,-6.758 7.21,-12.975C4.542,-15.73 1.027,-19.278 -2.14,-22.474C-4.085,-24.437 -5.902,-26.27 -7.337,-27.731C-7.337,-27.731 -8.319,-28.574 -9.415,-29.519C-10.365,-30.34 -11.342,-30.599 -12.104,-30.227C-12.887,-29.842 -13.295,-28.87 -13.224,-27.558C-13.125,-25.741 -12.704,-23.858 -12.005,-22.114C-10.404,-18.122 -10.838,-14.37 -13.331,-10.642C-13.69,-10.104 -14.057,-9.57 -14.425,-9.036C-15.438,-7.562 -16.486,-6.037 -17.362,-4.442C-22.445,4.814 -22.989,12.672 -19.07,20.285C-17.412,23.506 -15.884,26.391 -13.977,29.071C-10.793,33.54 -10.265,37.758 -12.316,42.344C-12.897,43.642 -13.187,45.298 -13.205,47.404C-13.217,48.703 -12.742,49.267 -12.341,49.511C-12.14,49.633 -11.86,49.735 -11.487,49.735C-11.084,49.735 -10.571,49.616 -9.929,49.277C-9.25,48.918 -8.642,48.476 -8.171,47.998C-5.814,45.599 -3.196,42.901 -0.547,40.172C1.717,37.84 4.817,34.795 7.427,32.205C4.632,28.661 2.502,24.581 1.153,20.163C0.747,19.84 0.364,19.498 0,19.136" style="fill:rgb(0,88,168);fill-rule:nonzero;"/>
        </g>
        <g transform="matrix(1,0,0,1,313.648,61.3071)">
            <path d="M0,-29.36C0.858,-28.615 2.558,-27.604 4.148,-26.691C4.686,-27.19 5.386,-27.474 6.184,-27.456C11.561,-27.302 25.172,-25.745 35.419,-14.647C35.698,-14.345 36.687,-13.204 36.942,-12.892C40.689,-8.302 43.474,-2.716 45.217,3.711C45.222,3.726 45.225,3.74 45.228,3.754C46.757,4.311 48.184,4.94 49.507,5.638C49.554,5.663 49.599,5.689 49.643,5.715C50.262,6.079 50.848,6.458 51.418,6.843C52.163,4.041 52.567,1.102 52.567,-1.932C52.567,-10.186 49.633,-17.768 44.754,-23.69C44.739,-23.708 44.724,-23.726 44.709,-23.744C38.418,-31.349 28.913,-36.203 18.296,-36.203C11.042,-36.203 4.319,-33.922 -1.226,-30.062C-0.793,-29.9 -0.373,-29.684 0,-29.36" style="fill:rgb(0,88,168);fill-rule:nonzero;"/>
        </g>
        <g transform="matrix(1,0,0,1,298.435,40.5612)">
            <path d="M0,23.67C0.745,23.881 1.761,24.093 2.963,24.285C3.08,23.015 3.462,21.608 3.826,20.274C3.937,19.864 4.283,17.757 4.42,15.882C4.448,15.492 4.532,14.064 4.548,13.678C4.612,12.109 4.502,10.703 4.502,10.703C4.282,8.722 3.785,4.122 5.309,-0.615C1.489,4.912 -0.762,11.602 -0.762,18.814C-0.762,20.452 -0.607,22.051 -0.384,23.628C-0.255,23.646 -0.127,23.634 0,23.67" style="fill:rgb(0,88,168);fill-rule:nonzero;"/>
        </g>
        <g transform="matrix(1,0,0,1,354.223,80.5408)">
            <path d="M0,4.62C-0.658,4.217 -1.322,3.789 -2.01,3.345C-4.526,1.722 -7.657,-0.298 -12.414,-2.301C-18.89,-5.026 -26.554,-5.137 -33.316,-5.234C-37.152,-5.289 -40.776,-5.341 -43.982,-5.84C-48.385,-6.525 -51.588,-7.356 -54.09,-8.486C-49.036,4.147 -36.695,13.106 -22.28,13.106C-14.324,13.106 -6.999,10.373 -1.176,5.807C-1.199,5.784 -1.226,5.758 -1.249,5.734C-0.81,5.388 -0.421,4.986 0,4.62" style="fill:rgb(0,88,168);fill-rule:nonzero;"/>
        </g>
        <g transform="matrix(1,0,0,1,305.855,33.5418)">
            <path d="M0,20.815C1.839,19.319 3.815,18.029 5.955,16.982C7.676,16.14 9.461,15.472 11.318,14.996C12.771,14.623 14.243,14.369 15.737,14.234C17.234,14.099 18.73,14.089 20.226,14.201C21.589,14.303 22.937,14.51 24.27,14.816C28.615,15.814 32.491,17.772 35.979,20.524C36.104,20.623 36.172,20.623 36.29,20.515C38.092,18.871 39.686,17.048 41.1,15.068C32.505,5.76 20.977,3.385 13.894,3.182C15.409,4.123 15.908,4.466 16.745,5.424C17.69,6.504 18.342,7.242 17.802,10.618C17.648,11.576 17.418,12.785 17.349,11.566C17.106,7.304 15.137,6.278 13.508,5.294C11.413,4.028 7.63,2.071 5.908,0.575C5.246,0 4.627,0.46 4.523,1.036C-1.622,6.79 -0.233,15.651 -0.015,17.838C0.055,18.543 0.048,19.63 0,20.815" style="fill:rgb(237,28,36);fill-rule:nonzero;"/>
        </g>
        <g transform="matrix(1,0,0,1,347.472,73.1446)">
            <path d="M0,-9.913C-0.289,-10.316 -0.56,-10.702 -0.839,-11.081C-2.173,-12.896 -3.667,-14.567 -5.333,-16.085C-5.445,-16.188 -5.513,-16.188 -5.631,-16.094C-8.006,-14.211 -10.592,-12.693 -13.418,-11.59C-14.96,-10.988 -16.542,-10.527 -18.167,-10.206C-20.177,-9.81 -22.205,-9.642 -24.251,-9.7C-25.415,-9.733 -26.573,-9.845 -27.724,-10.027C-29.67,-10.335 -31.559,-10.848 -33.396,-11.558C-35.211,-12.259 -36.933,-13.143 -38.576,-14.182C-39.686,-14.884 -40.735,-15.667 -41.75,-16.494C-41.878,-14.739 -42.048,-13.164 -42.149,-12.673C-42.361,-11.637 -43.81,-7.198 -43.035,-6.968C-36.755,-4.643 -29.412,-6.052 -27.64,-5.656C-34.932,-3.833 -45.832,-5.018 -49.82,-6.148C-47.455,-3.797 -43.996,-2.405 -36.789,-1.284C-28.114,0.065 -15.247,-2.057 -4.547,2.447C5.522,6.685 8.44,10.866 13.633,11.877C17.915,12.722 25.376,12.998 24.073,7.208C22.262,2.36 18.756,-1.053 14.355,-3.65C14.35,-3.653 14.346,-3.655 14.341,-3.658C8.914,-6.524 2.139,-7.778 -4.177,-8.231C-0.132,-8.61 4.072,-8.505 8.62,-7.373C6.86,-13.86 4.134,-18.941 0.892,-22.911C-0.519,-20.989 -2.091,-19.215 -3.863,-17.592C-3.808,-17.534 -3.764,-17.484 -3.716,-17.439C-1.697,-15.576 0.069,-13.496 1.625,-11.235C1.709,-11.113 2.415,-9.954 2.282,-9.868L0,-9.913Z" style="fill:rgb(237,28,36);fill-rule:nonzero;"/>
        </g>
        <g transform="matrix(1,0,0,1,321.978,60.9011)">
            <path d="M0,-11.058C-5.332,-10.64 -10.035,-8.611 -14.272,-5.349C-14.189,-5.279 -14.143,-5.235 -14.092,-5.199C-13.679,-4.897 -13.27,-4.587 -12.849,-4.296C-9.048,-1.682 -4.872,-0.074 -0.266,0.361C1.617,0.539 3.499,0.499 5.373,0.246C6.773,0.058 8.148,-0.246 9.498,-0.663C12.702,-1.653 15.606,-3.211 18.258,-5.25C18.293,-5.278 18.34,-5.291 18.381,-5.31C12.922,-9.496 6.864,-11.597 0,-11.058" style="fill:rgb(237,28,36);fill-rule:nonzero;"/>
        </g>
        <g transform="matrix(1,0,0,1,8.3009,142.427)">
            <path d="M0,-17.471L11.87,-17.471L11.87,-13.54L4.676,-13.54L4.676,-9.481L11.022,-9.481L11.022,-5.55L4.676,-5.55L4.676,0L0,0L0,-17.471Z" style="fill:rgb(0,88,168);fill-rule:nonzero;"/>
        </g>
        <g transform="matrix(1,0,0,1,0,87.383)">
            <rect x="25.151" y="37.573" width="4.676" height="17.471" style="fill:rgb(0,88,168);"/>
        </g>
        <g transform="matrix(1,0,0,1,41.9256,132.689)">
            <path d="M0,2.005C2.107,2.005 2.878,0.823 2.878,-0.873C2.878,-2.569 2.107,-3.776 0,-3.776L-1.721,-3.776L-1.721,2.005L0,2.005ZM7.528,9.738L2.466,9.738L0.026,5.731L-1.721,5.731L-1.721,9.738L-6.397,9.738L-6.397,-7.733L0.232,-7.733C4.933,-7.733 7.579,-4.752 7.579,-0.873C7.579,1.645 6.474,3.649 4.419,4.78L7.528,9.738Z" style="fill:rgb(0,88,168);fill-rule:nonzero;"/>
        </g>
        <g transform="matrix(1,0,0,1,54.2544,142.427)">
            <path d="M0,-17.471L12.256,-17.471L12.256,-13.54L4.676,-13.54L4.676,-9.481L10.997,-9.481L10.997,-5.755L4.676,-5.755L4.676,-3.931L12.615,-3.931L12.615,0L0,0L0,-17.471Z" style="fill:rgb(0,88,168);fill-rule:nonzero;"/>
        </g>
        <g transform="matrix(1,0,0,1,71.6954,142.427)">
            <path d="M0,-17.471L11.87,-17.471L11.87,-13.54L4.676,-13.54L4.676,-9.481L11.022,-9.481L11.022,-5.55L4.676,-5.55L4.676,0L0,0L0,-17.471Z" style="fill:rgb(0,88,168);fill-rule:nonzero;"/>
        </g>
        <g transform="matrix(1,0,0,1,0,87.383)">
            <rect x="88.547" y="37.573" width="4.676" height="17.471" style="fill:rgb(0,88,168);"/>
        </g>
        <g transform="matrix(1,0,0,1,110.922,130.865)">
            <path d="M0,5.678L-3.469,5.678L-3.469,2.081L4.162,2.081L4.162,9.377C2.543,10.714 0.437,11.793 -3.443,11.793C-8.582,11.793 -12.846,8.093 -12.846,2.826C-12.846,-2.441 -8.582,-6.115 -3.546,-6.115C-0.463,-6.115 1.953,-4.959 3.469,-3.006L0.205,-0.18C-0.668,-1.311 -1.901,-2.055 -3.649,-2.055C-6.5,-2.055 -8.068,0.077 -8.068,2.826C-8.068,5.575 -6.475,7.862 -3.392,7.862C-1.696,7.862 -0.745,7.528 0,7.169L0,5.678Z" style="fill:rgb(0,88,168);fill-rule:nonzero;"/>
        </g>
        <g transform="matrix(1,0,0,1,130.726,142.427)">
            <path d="M0,-17.471L4.676,-17.471L4.676,0L0,0L0,-5.55L-6.064,-5.55L-6.064,0L-10.74,0L-10.74,-17.471L-6.064,-17.471L-6.064,-9.481L0,-9.481L0,-17.471Z" style="fill:rgb(0,88,168);fill-rule:nonzero;"/>
        </g>
        <g transform="matrix(1,0,0,1,144.697,138.496)">
            <path d="M0,-9.609L-4.625,-9.609L-4.625,-13.54L9.302,-13.54L9.302,-9.609L4.676,-9.609L4.676,3.931L0,3.931L0,-9.609Z" style="fill:rgb(0,88,168);fill-rule:nonzero;"/>
        </g>
        <g transform="matrix(1,0,0,1,158.67,142.427)">
            <path d="M0,-17.471L12.256,-17.471L12.256,-13.54L4.676,-13.54L4.676,-9.481L10.997,-9.481L10.997,-5.755L4.676,-5.755L4.676,-3.931L12.615,-3.931L12.615,0L0,0L0,-17.471Z" style="fill:rgb(0,88,168);fill-rule:nonzero;"/>
        </g>
        <g transform="matrix(1,0,0,1,182.509,132.689)">
            <path d="M0,2.005C2.107,2.005 2.878,0.823 2.878,-0.873C2.878,-2.569 2.107,-3.776 0,-3.776L-1.721,-3.776L-1.721,2.005L0,2.005ZM7.528,9.738L2.466,9.738L0.026,5.731L-1.721,5.731L-1.721,9.738L-6.397,9.738L-6.397,-7.733L0.232,-7.733C4.933,-7.733 7.579,-4.752 7.579,-0.873C7.579,1.645 6.475,3.649 4.419,4.78L7.528,9.738Z" style="fill:rgb(0,88,168);fill-rule:nonzero;"/>
        </g>
        <g transform="matrix(1,0,0,1,193.425,127.987)">
            <path d="M0,11.46L3.391,8.917C4.239,9.969 5.292,10.818 7.04,10.818C8.427,10.818 9.249,10.406 9.249,9.43C9.249,8.685 8.684,8.325 7.528,7.94L5.472,7.246C2.929,6.399 1.131,4.856 1.131,1.979C1.131,-1.463 3.982,-3.237 7.091,-3.237C10.174,-3.237 11.869,-2.132 12.898,-0.924L10.225,1.876C9.506,1.132 8.735,0.617 7.348,0.617C6.217,0.617 5.652,1.132 5.652,1.826C5.652,2.493 6.037,2.827 6.885,3.11L9.198,3.881C12.692,5.036 13.874,6.707 13.874,9.174C13.874,12.385 11.869,14.697 7.245,14.697C3.314,14.697 1.079,12.899 0,11.46" style="fill:rgb(0,88,168);fill-rule:nonzero;"/>
        </g>
        <g transform="matrix(1,0,0,1,220.78,142.427)">
            <path d="M0,-17.471L11.87,-17.471L11.87,-13.54L4.676,-13.54L4.676,-9.481L11.022,-9.481L11.022,-5.55L4.676,-5.55L4.676,0L0,0L0,-17.471Z" style="fill:rgb(0,88,168);fill-rule:nonzero;"/>
        </g>
        <g transform="matrix(1,0,0,1,250.401,133.717)">
            <path d="M0,-0.025C0,-2.775 -1.671,-4.906 -4.599,-4.906C-7.528,-4.906 -9.198,-2.775 -9.198,-0.025C-9.198,2.724 -7.528,4.882 -4.599,4.882C-1.671,4.882 0,2.724 0,-0.025M-13.977,-0.025C-13.977,-5.292 -9.635,-8.967 -4.599,-8.967C0.436,-8.967 4.778,-5.292 4.778,-0.025C4.778,5.242 0.436,8.942 -4.599,8.942C-9.635,8.942 -13.977,5.242 -13.977,-0.025" style="fill:rgb(0,88,168);fill-rule:nonzero;"/>
        </g>
        <g transform="matrix(1,0,0,1,266.324,132.689)">
            <path d="M0,2.005C2.107,2.005 2.878,0.823 2.878,-0.873C2.878,-2.569 2.107,-3.776 0,-3.776L-1.721,-3.776L-1.721,2.005L0,2.005ZM7.528,9.738L2.466,9.738L0.026,5.731L-1.721,5.731L-1.721,9.738L-6.397,9.738L-6.397,-7.733L0.232,-7.733C4.933,-7.733 7.579,-4.752 7.579,-0.873C7.579,1.645 6.475,3.649 4.419,4.78L7.528,9.738Z" style="fill:rgb(0,88,168);fill-rule:nonzero;"/>
        </g>
        <g transform="matrix(1,0,0,1,295.684,124.75)">
            <path d="M0,17.909C-4.907,17.909 -9.094,14.209 -9.094,8.942C-9.094,3.675 -4.933,0 -0.257,0C3.52,0 5.833,1.594 7.297,3.752L3.777,6.142C3.11,5.113 2.03,4.061 -0.179,4.061C-2.749,4.061 -4.316,6.192 -4.316,8.942C-4.316,11.691 -2.697,13.849 -0.025,13.849C2.236,13.849 3.34,12.821 4.085,11.434L7.683,13.747C5.961,16.65 3.546,17.909 0,17.909" style="fill:rgb(0,88,168);fill-rule:nonzero;"/>
        </g>
        <g transform="matrix(1,0,0,1,318.47,142.427)">
            <path d="M0,-17.471L4.676,-17.471L4.676,0L0,0L0,-5.55L-6.064,-5.55L-6.064,0L-10.74,0L-10.74,-17.471L-6.064,-17.471L-6.064,-9.481L0,-9.481L0,-17.471Z" style="fill:rgb(0,88,168);fill-rule:nonzero;"/>
        </g>
        <g transform="matrix(1,0,0,1,335.139,132.689)">
            <path d="M0,2.005C2.107,2.005 2.878,0.823 2.878,-0.873C2.878,-2.569 2.107,-3.776 0,-3.776L-1.721,-3.776L-1.721,2.005L0,2.005ZM7.528,9.738L2.467,9.738L0.026,5.731L-1.721,5.731L-1.721,9.738L-6.397,9.738L-6.397,-7.733L0.232,-7.733C4.933,-7.733 7.579,-4.752 7.579,-0.873C7.579,1.645 6.474,3.649 4.419,4.78L7.528,9.738Z" style="fill:rgb(0,88,168);fill-rule:nonzero;"/>
        </g>
        <g transform="matrix(1,0,0,1,0,87.383)">
            <rect x="347.57" y="37.573" width="4.676" height="17.471" style="fill:rgb(0,88,168);"/>
        </g>
        <g transform="matrix(1,0,0,1,356.534,127.987)">
            <path d="M0,11.46L3.391,8.917C4.239,9.969 5.292,10.818 7.04,10.818C8.427,10.818 9.249,10.406 9.249,9.43C9.249,8.685 8.684,8.325 7.528,7.94L5.472,7.246C2.929,6.399 1.13,4.856 1.13,1.979C1.13,-1.463 3.982,-3.237 7.091,-3.237C10.174,-3.237 11.869,-2.132 12.898,-0.924L10.225,1.876C9.506,1.132 8.735,0.617 7.348,0.617C6.217,0.617 5.652,1.132 5.652,1.826C5.652,2.493 6.037,2.827 6.886,3.11L9.198,3.881C12.692,5.036 13.874,6.707 13.874,9.174C13.874,12.385 11.869,14.697 7.245,14.697C3.314,14.697 1.079,12.899 0,11.46" style="fill:rgb(0,88,168);fill-rule:nonzero;"/>
        </g>
        <g transform="matrix(1,0,0,1,378.163,138.496)">
            <path d="M0,-9.609L-4.625,-9.609L-4.625,-13.54L9.302,-13.54L9.302,-9.609L4.676,-9.609L4.676,3.931L0,3.931L0,-9.609Z" style="fill:rgb(0,88,168);fill-rule:nonzero;"/>
        </g>
        <g transform="matrix(18,0,0,18,380.91,171.63)">
        </g>
        <text x="219.085px" y="171.63px" style="font-family:'Helvetica';font-size:18px;fill:white;">I<tspan x="225.68px 240.274px 252.864px 266.464px 281.058px 295.651px 307.924px 320.514px 327.109px 342.705px 357.298px 370.899px " y="171.63px 171.63px 171.63px 171.63px 171.63px 171.63px 171.63px 171.63px 171.63px 171.63px 171.63px 171.63px ">NTERNATIONAL</tspan></text>
    </g>
</svg>
